<svg width="108" height="98" viewBox="0 0 108 98" fill="none" xmlns="http://www.w3.org/2000/svg">
<circle cx="71.2106" cy="51.0039" r="36.2288" fill="#604993"/>
<path d="M20.9001 85.6343C18.6617 85.6343 16.7455 84.8373 15.1515 83.2433C13.5575 81.6493 12.7605 79.7331 12.7605 77.4947V20.5173C12.7605 18.2789 13.5575 16.3626 15.1515 14.7686C16.7455 13.1746 18.6617 12.3776 20.9001 12.3776H37.9934C38.8752 9.93572 40.3505 7.96864 42.4193 6.47638C44.4881 4.98411 46.8113 4.23798 49.3889 4.23798C51.9664 4.23798 54.2896 4.98411 56.3584 6.47638C58.4272 7.96864 59.9026 9.93572 60.7844 12.3776H77.8776C80.116 12.3776 82.0322 13.1746 83.6262 14.7686C85.2202 16.3626 86.0172 18.2789 86.0172 20.5173V77.4947C86.0172 79.7331 85.2202 81.6493 83.6262 83.2433C82.0322 84.8373 80.116 85.6343 77.8776 85.6343H20.9001ZM20.9001 77.4947H77.8776V20.5173H20.9001V77.4947ZM29.0398 69.3551H57.5285V61.2154H29.0398V69.3551ZM29.0398 53.0758H69.738V44.9362H29.0398V53.0758ZM29.0398 36.7965H69.738V28.6569H29.0398V36.7965ZM49.3889 17.4649C50.2707 17.4649 50.9998 17.1766 51.5764 16.6C52.1529 16.0235 52.4412 15.2943 52.4412 14.4125C52.4412 13.5307 52.1529 12.8016 51.5764 12.225C50.9998 11.6484 50.2707 11.3602 49.3889 11.3602C48.5071 11.3602 47.7779 11.6484 47.2013 12.225C46.6248 12.8016 46.3365 13.5307 46.3365 14.4125C46.3365 15.2943 46.6248 16.0235 47.2013 16.6C47.7779 17.1766 48.5071 17.4649 49.3889 17.4649Z" fill="black"/>
</svg>
