<svg width="99" height="104" viewBox="0 0 99 104" fill="none" xmlns="http://www.w3.org/2000/svg">
<ellipse cx="38.2798" cy="36.6253" rx="36.2288" ry="36.2288" fill="#604993"/>
<path d="M21.2679 91.6344C19.0295 91.6344 17.1133 90.8374 15.5193 89.2434C13.9253 87.6494 13.1283 85.7332 13.1283 83.4948V26.5173C13.1283 24.2789 13.9253 22.3627 15.5193 20.7687C17.1133 19.1747 19.0295 18.3777 21.2679 18.3777H78.2454C80.4838 18.3777 82.4 19.1747 83.994 20.7687C85.588 22.3627 86.385 24.2789 86.385 26.5173V83.4948C86.385 85.7332 85.588 87.6494 83.994 89.2434C82.4 90.8374 80.4838 91.6344 78.2454 91.6344H21.2679ZM21.2679 83.4948H78.2454V26.5173H21.2679V83.4948ZM25.3377 75.3551H74.1756L58.9137 55.0061L46.7043 71.2853L37.5472 59.0759L25.3377 75.3551Z" fill="black"/>
</svg>
