<svg width="127" height="98" viewBox="0 0 127 98" fill="none" xmlns="http://www.w3.org/2000/svg">
<circle cx="36.2288" cy="36.286" r="36.2288" fill="#604993"/>
<path d="M55.5567 65.2854C58.7448 65.2854 61.848 65.6415 64.8664 66.3537C67.8849 67.0659 70.8864 68.1343 73.8709 69.5587V29.471C71.0899 27.8431 68.1393 26.6221 65.0191 25.8082C61.8989 24.9942 58.7448 24.5872 55.5567 24.5872C53.1148 24.5872 50.6899 24.8246 48.2819 25.2994C45.874 25.7742 43.5508 26.4865 41.3124 27.4361V67.7273C43.6864 66.9133 46.0435 66.3028 48.3837 65.8959C50.7238 65.4889 53.1148 65.2854 55.5567 65.2854ZM82.0106 69.5587C84.9951 68.1343 87.9966 67.0659 91.015 66.3537C94.0335 65.6415 97.1367 65.2854 100.325 65.2854C102.767 65.2854 105.158 65.4889 107.498 65.8959C109.838 66.3028 112.195 66.9133 114.569 67.7273V27.4361C112.331 26.4865 110.008 25.7742 107.6 25.2994C105.192 24.8246 102.767 24.5872 100.325 24.5872C97.1367 24.5872 93.9826 24.9942 90.8624 25.8082C87.7422 26.6221 84.7916 27.8431 82.0106 29.471V69.5587ZM77.9407 81.5647C74.6849 78.9871 71.1577 76.9861 67.3592 75.5617C63.5607 74.1372 59.6266 73.425 55.5567 73.425C52.7079 73.425 49.9099 73.7981 47.1627 74.5442C44.4156 75.2904 41.7872 76.3417 39.2775 77.6983C37.853 78.4445 36.4795 78.4105 35.1568 77.5966C33.8341 76.7826 33.1727 75.5956 33.1727 74.0355V24.9942C33.1727 24.2481 33.3593 23.5358 33.7323 22.8575C34.1054 22.1792 34.665 21.6705 35.4111 21.3314C38.5313 19.7034 41.7872 18.4825 45.1787 17.6685C48.5702 16.8546 52.0296 16.4476 55.5567 16.4476C59.4909 16.4476 63.3403 16.9563 67.1048 17.9738C70.8694 18.9912 74.4814 20.5174 77.9407 22.5523C81.4001 20.5174 85.012 18.9912 88.7766 17.9738C92.5412 16.9563 96.3906 16.4476 100.325 16.4476C103.852 16.4476 107.311 16.8546 110.703 17.6685C114.094 18.4825 117.35 19.7034 120.47 21.3314C121.216 21.6705 121.776 22.1792 122.149 22.8575C122.522 23.5358 122.709 24.2481 122.709 24.9942V74.0355C122.709 75.5956 122.047 76.7826 120.725 77.5966C119.402 78.4105 118.028 78.4445 116.604 77.6983C114.094 76.3417 111.466 75.2904 108.719 74.5442C105.972 73.7981 103.174 73.425 100.325 73.425C96.2549 73.425 92.3208 74.1372 88.5223 75.5617C84.7238 76.9861 81.1966 78.9871 77.9407 81.5647Z" fill="black"/>
</svg>
