<svg width="118" height="107" viewBox="0 0 118 107" fill="none" xmlns="http://www.w3.org/2000/svg">
<circle cx="80.7848" cy="36.2288" r="36.2288" fill="#604993"/>
<path d="M37.3636 60.0409H41.4334V51.9013H45.5032C46.6564 51.9013 47.6229 51.5112 48.403 50.7312C49.183 49.9511 49.5731 48.9846 49.5731 47.8314V43.7616C49.5731 42.6085 49.183 41.6419 48.403 40.8619C47.6229 40.0818 46.6564 39.6918 45.5032 39.6918H37.3636V60.0409ZM41.4334 47.8314V43.7616H45.5032V47.8314H41.4334ZM53.6429 60.0409H61.7825C62.9356 60.0409 63.9022 59.6509 64.6823 58.8708C65.4623 58.0908 65.8523 57.1242 65.8523 55.9711V43.7616C65.8523 42.6085 65.4623 41.6419 64.6823 40.8619C63.9022 40.0818 62.9356 39.6918 61.7825 39.6918H53.6429V60.0409ZM57.7127 55.9711V43.7616H61.7825V55.9711H57.7127ZM69.9222 60.0409H73.992V51.9013H78.0618V47.8314H73.992V43.7616H78.0618V39.6918H69.9222V60.0409ZM33.2938 82.4249C31.0554 82.4249 29.1392 81.6279 27.5452 80.0339C25.9512 78.4399 25.1542 76.5237 25.1542 74.2853V25.4474C25.1542 23.209 25.9512 21.2928 27.5452 19.6988C29.1392 18.1048 31.0554 17.3078 33.2938 17.3078H82.1316C84.37 17.3078 86.2862 18.1048 87.8802 19.6988C89.4743 21.2928 90.2713 23.209 90.2713 25.4474V74.2853C90.2713 76.5237 89.4743 78.4399 87.8802 80.0339C86.2862 81.6279 84.37 82.4249 82.1316 82.4249H33.2938ZM33.2938 74.2853H82.1316V25.4474H33.2938V74.2853ZM17.0145 98.7042C14.7761 98.7042 12.8599 97.9072 11.2659 96.3132C9.67188 94.7192 8.87488 92.8029 8.87488 90.5645V33.5871H17.0145V90.5645H73.992V98.7042H17.0145Z" fill="black"/>
</svg>
