<svg width="66" height="73" viewBox="0 0 66 73" fill="none" xmlns="http://www.w3.org/2000/svg">
<path d="M28.5408 36.6315C17.7573 47.1075 11.3508 51.8918 1.39939 64.8812C2.50803 66.4538 3.32544 66.9449 4.90981 67.5689C15.6887 56.2331 23.7026 48.9488 31.7127 38.9179C32.0075 37.5602 31.8838 37.0223 31.4393 36.2358C30.5261 35.9116 29.9755 35.8145 28.5408 36.6315Z" fill="#23283E" stroke="#1B222D"/>
<path d="M33.9581 32.1132L20.9171 34.1366C21.4863 30.6593 24.5409 27.5948 29.961 22.1574L30.0121 22.1061C27.3765 18.4238 27.315 16.1472 27.024 12.1139C31.9062 13.1145 34.5433 13.9582 38.978 16.2339C42.5862 12.9624 44.6534 11.1941 49.5819 9.86771C49.42 13.3968 49.1073 16.6873 48.4886 22.9136C53.22 25.7671 55.343 27.7747 58.8936 31.5369C54.7043 33.063 51.966 33.5486 45.7912 33.1883C43.9861 40.1054 42.905 42.936 40.9599 45.5821C36.9321 40.7616 35.3636 37.8232 33.9581 32.1132Z" fill="#FED382" stroke="#FACB6E"/>
</svg>
